<?xml version="1.0" encoding="UTF-8"?>
<svg width="200" height="200" viewBox="0 0 200 200" fill="none" xmlns="http://www.w3.org/2000/svg">
  <defs>
    <!-- Base grid with very subtle lines -->
    <pattern id="grid" width="40" height="40" patternUnits="userSpaceOnUse">
      <path d="M 40 0 L 0 0 0 40" fill="none" stroke="rgba(59, 130, 246, 0.05)" stroke-width="0.3"/>
    </pattern>
    
    <!-- Subtle dots pattern -->
    <pattern id="dots" width="20" height="20" patternUnits="userSpaceOnUse">
      <circle cx="10" cy="10" r="0.3" fill="rgba(59, 130, 246, 0.05)"/>
    </pattern>
    
    <!-- Main circuit pattern -->
    <pattern id="circuit" width="100" height="100" patternUnits="userSpaceOnUse">
      <!-- Central node connections -->
      <path d="M50 0 L50 20 M50 80 L50 100 M0 50 L20 50 M80 50 L100 50" 
            stroke="rgba(59, 130, 246, 0.08)" 
            stroke-width="0.4" 
            stroke-linecap="round"
            fill="none"/>
      
      <!-- Diagonal connections -->
      <path d="M20 20 L40 40 M60 60 L80 80 M20 80 L40 60 M60 40 L80 20" 
            stroke="rgba(59, 130, 246, 0.06)" 
            stroke-width="0.3" 
            stroke-linecap="round"
            fill="none"/>
      
      <!-- Small circuit nodes -->
      <circle cx="50" cy="50" r="1.5" fill="rgba(59, 130, 246, 0.1)"/>
      <circle cx="20" cy="20" r="1" fill="rgba(59, 130, 246, 0.08)"/>
      <circle cx="80" cy="80" r="1" fill="rgba(59, 130, 246, 0.08)"/>
      <circle cx="20" cy="80" r="1" fill="rgba(59, 130, 246, 0.08)"/>
      <circle cx="80" cy="20" r="1" fill="rgba(59, 130, 246, 0.08)"/>
    </pattern>
    
    <!-- Glow effect for nodes -->
    <filter id="glow" x="-20%" y="-20%" width="140%" height="140%">
      <feGaussianBlur stdDeviation="1" result="blur"/>
      <feComposite in="SourceGraphic" in2="blur" operator="over"/>
    </filter>
  </defs>
  
  <!-- Apply patterns with different opacities -->
  <rect width="200" height="200" fill="url(#grid)"/>
  <rect width="200" height="200" fill="url(#dots)"/>
  <rect width="200" height="200" fill="url(#circuit)"/>
</svg> 